<?xml version="1.0" encoding="UTF-8" standalone="no"?>
<!--?xml version="1.0" encoding="utf-8"?-->

<!-- Generator: Adobe Illustrator 18.1.1, SVG Export Plug-In . SVG Version: 6.00 Build 0)  -->

<svg
   version="1.1"
   id="_x32_"
   x="0px"
   y="0px"
   viewBox="0 0 512 512"
   style="width: 256px; height: 256px; opacity: 1;"
   xml:space="preserve"
   sodipodi:docname="cmd.svg"
   inkscape:version="1.3 (0e150ed, 2023-07-21)"
   xmlns:inkscape="http://www.inkscape.org/namespaces/inkscape"
   xmlns:sodipodi="http://sodipodi.sourceforge.net/DTD/sodipodi-0.dtd"
   xmlns="http://www.w3.org/2000/svg"
   xmlns:svg="http://www.w3.org/2000/svg"><defs
   id="defs1" /><sodipodi:namedview
   id="namedview1"
   pagecolor="#ffffff"
   bordercolor="#000000"
   borderopacity="0.25"
   inkscape:showpageshadow="2"
   inkscape:pageopacity="0.0"
   inkscape:pagecheckerboard="0"
   inkscape:deskcolor="#d1d1d1"
   inkscape:zoom="0.75718715"
   inkscape:cx="172.34841"
   inkscape:cy="318.94361"
   inkscape:window-width="1680"
   inkscape:window-height="940"
   inkscape:window-x="0"
   inkscape:window-y="25"
   inkscape:window-maximized="1"
   inkscape:current-layer="_x32_" />&#10;<style
   type="text/css"
   id="style1">&#10;	.st0{fill:#4B4B4B;}&#10;</style>&#10;<g
   id="g1">&#10;	<path
   class="st0"
   d="M464,0H48C21.492,0,0,21.492,0,48v416c0,26.507,21.492,48,48,48h416c26.508,0,48-21.493,48-48V48   C512,21.492,490.508,0,464,0z M444.664,35c10.492,0,19,8.507,19,19c0,10.492-8.508,19-19,19s-19-8.508-19-19   C425.664,43.507,434.172,35,444.664,35z M374.164,35c10.492,0,19,8.507,19,19c0,10.492-8.508,19-19,19s-19-8.508-19-19   C355.164,43.507,363.672,35,374.164,35z M303.664,35c10.492,0,19,8.507,19,19c0,10.492-8.508,19-19,19s-19-8.508-19-19   C284.664,43.507,293.172,35,303.664,35z M472,464c0,4.406-3.586,8-8,8H48c-4.414,0-8-3.594-8-8V104h432V464z"
   style="fill: rgb(255, 255, 255);"
   id="path1" />&#10;</g>&#10;<text
   xml:space="preserve"
   style="font-weight:bold;font-size:240px;font-family:Futura;-inkscape-font-specification:'Futura Bold';fill:#4d4d4d;stroke:#ffffff;stroke-width:10"
   x="71.559898"
   y="374.77979"
   id="text1"><tspan
     sodipodi:role="line"
     id="tspan1"
     x="71.559898"
     y="374.77979"
     style="fill:#f9f9f9">&gt;</tspan></text></svg>
